<mxfile host="65bd71144e">
    <diagram id="32MUQ7mJ76KiGd3QVTmm" name="Page-1">
        <mxGraphModel dx="878" dy="443" grid="1" gridSize="10" guides="1" tooltips="1" connect="1" arrows="1" fold="1" page="1" pageScale="1" pageWidth="827" pageHeight="1169" math="0" shadow="0">
            <root>
                <mxCell id="0"/>
                <mxCell id="1" parent="0"/>
                <mxCell id="21" value="&quot;Dennis&quot;" style="edgeStyle=none;html=1;" edge="1" parent="1" source="2" target="3">
                    <mxGeometry relative="1" as="geometry"/>
                </mxCell>
                <mxCell id="2" value="UserAgent" style="sketch=0;outlineConnect=0;fontColor=#232F3E;gradientColor=none;fillColor=#BF0816;strokeColor=none;dashed=0;verticalLabelPosition=bottom;verticalAlign=top;align=center;html=1;fontSize=12;fontStyle=0;aspect=fixed;pointerEvents=1;shape=mxgraph.aws4.waf_bot;" parent="1" vertex="1">
                    <mxGeometry x="110" y="180" width="50" height="50" as="geometry"/>
                </mxCell>
                <mxCell id="22" value="&quot;Berlin&quot;" style="edgeStyle=none;html=1;" edge="1" parent="1" source="3" target="4">
                    <mxGeometry relative="1" as="geometry"/>
                </mxCell>
                <mxCell id="3" value="LocationAgent" style="sketch=0;outlineConnect=0;fontColor=#232F3E;gradientColor=none;fillColor=#BF0816;strokeColor=none;dashed=0;verticalLabelPosition=bottom;verticalAlign=top;align=center;html=1;fontSize=12;fontStyle=0;aspect=fixed;pointerEvents=1;shape=mxgraph.aws4.waf_bot;" parent="1" vertex="1">
                    <mxGeometry x="246" y="180" width="50" height="50" as="geometry"/>
                </mxCell>
                <mxCell id="23" value="&quot;Morning&quot;" style="edgeStyle=none;html=1;" edge="1" parent="1" source="4" target="5">
                    <mxGeometry relative="1" as="geometry"/>
                </mxCell>
                <mxCell id="4" value="TimeAgent" style="sketch=0;outlineConnect=0;fontColor=#232F3E;gradientColor=none;fillColor=#BF0816;strokeColor=none;dashed=0;verticalLabelPosition=bottom;verticalAlign=top;align=center;html=1;fontSize=12;fontStyle=0;aspect=fixed;pointerEvents=1;shape=mxgraph.aws4.waf_bot;" parent="1" vertex="1">
                    <mxGeometry x="385" y="180" width="50" height="50" as="geometry"/>
                </mxCell>
                <mxCell id="24" value="&quot;What are the allergies?&quot;" style="edgeStyle=none;html=1;" edge="1" parent="1" source="5" target="2">
                    <mxGeometry relative="1" as="geometry">
                        <Array as="points">
                            <mxPoint x="500" y="290"/>
                            <mxPoint x="180" y="290"/>
                        </Array>
                    </mxGeometry>
                </mxCell>
                <mxCell id="5" value="Chef" style="sketch=0;outlineConnect=0;fontColor=#232F3E;gradientColor=none;fillColor=#BF0816;strokeColor=none;dashed=0;verticalLabelPosition=bottom;verticalAlign=top;align=center;html=1;fontSize=12;fontStyle=0;aspect=fixed;pointerEvents=1;shape=mxgraph.aws4.waf_bot;" parent="1" vertex="1">
                    <mxGeometry x="522" y="180" width="50" height="50" as="geometry"/>
                </mxCell>
                <mxCell id="12" style="edgeStyle=none;html=1;" parent="1" source="6" target="2" edge="1">
                    <mxGeometry relative="1" as="geometry"/>
                </mxCell>
                <mxCell id="6" value="Username" style="sketch=0;aspect=fixed;pointerEvents=1;shadow=0;dashed=0;html=1;strokeColor=none;labelPosition=center;verticalLabelPosition=bottom;verticalAlign=top;align=center;fillColor=#00188D;shape=mxgraph.mscae.enterprise.tool;" parent="1" vertex="1">
                    <mxGeometry x="110" y="20" width="50" height="45" as="geometry"/>
                </mxCell>
                <mxCell id="11" style="edgeStyle=none;html=1;" parent="1" source="10" target="2" edge="1">
                    <mxGeometry relative="1" as="geometry"/>
                </mxCell>
                <mxCell id="10" value="MedicalHistory" style="sketch=0;aspect=fixed;pointerEvents=1;shadow=0;dashed=0;html=1;strokeColor=none;labelPosition=center;verticalLabelPosition=bottom;verticalAlign=top;align=center;fillColor=#00188D;shape=mxgraph.mscae.enterprise.tool;" parent="1" vertex="1">
                    <mxGeometry x="30" y="20" width="50" height="45" as="geometry"/>
                </mxCell>
                <mxCell id="14" style="edgeStyle=none;html=1;" parent="1" source="13" target="3" edge="1">
                    <mxGeometry relative="1" as="geometry"/>
                </mxCell>
                <mxCell id="13" value="WhereIsUser" style="sketch=0;aspect=fixed;pointerEvents=1;shadow=0;dashed=0;html=1;strokeColor=none;labelPosition=center;verticalLabelPosition=bottom;verticalAlign=top;align=center;fillColor=#00188D;shape=mxgraph.mscae.enterprise.tool;" parent="1" vertex="1">
                    <mxGeometry x="246" y="20" width="50" height="45" as="geometry"/>
                </mxCell>
                <mxCell id="17" style="edgeStyle=none;html=1;startArrow=none;" parent="1" source="26" target="4" edge="1">
                    <mxGeometry relative="1" as="geometry"/>
                </mxCell>
                <mxCell id="16" value="WhatTimeIsItHere" style="sketch=0;aspect=fixed;pointerEvents=1;shadow=0;dashed=0;html=1;strokeColor=none;labelPosition=center;verticalLabelPosition=bottom;verticalAlign=top;align=center;fillColor=#00188D;shape=mxgraph.mscae.enterprise.tool;" parent="1" vertex="1">
                    <mxGeometry x="385" y="20" width="50" height="45" as="geometry"/>
                </mxCell>
                <mxCell id="19" style="edgeStyle=none;html=1;startArrow=none;" parent="1" source="29" target="5" edge="1">
                    <mxGeometry relative="1" as="geometry"/>
                </mxCell>
                <mxCell id="18" value="GetIngredients" style="sketch=0;aspect=fixed;pointerEvents=1;shadow=0;dashed=0;html=1;strokeColor=none;labelPosition=center;verticalLabelPosition=bottom;verticalAlign=top;align=center;fillColor=#00188D;shape=mxgraph.mscae.enterprise.tool;" parent="1" vertex="1">
                    <mxGeometry x="522" y="20" width="50" height="45" as="geometry"/>
                </mxCell>
                <mxCell id="20" value="With all the facts I can recomend X for Dennis" style="whiteSpace=wrap;html=1;shape=mxgraph.basic.oval_callout" vertex="1" parent="1">
                    <mxGeometry x="572" y="80" width="168" height="120" as="geometry"/>
                </mxCell>
                <mxCell id="25" value="1" style="ellipse;whiteSpace=wrap;html=1;" vertex="1" parent="1">
                    <mxGeometry x="117.5" y="110" width="35" height="30" as="geometry"/>
                </mxCell>
                <mxCell id="27" value="2" style="ellipse;whiteSpace=wrap;html=1;" vertex="1" parent="1">
                    <mxGeometry x="253.5" y="110" width="35" height="30" as="geometry"/>
                </mxCell>
                <mxCell id="28" value="" style="edgeStyle=none;html=1;endArrow=none;" edge="1" parent="1" source="16" target="26">
                    <mxGeometry relative="1" as="geometry">
                        <mxPoint x="410" y="65" as="sourcePoint"/>
                        <mxPoint x="410" y="180" as="targetPoint"/>
                    </mxGeometry>
                </mxCell>
                <mxCell id="26" value="3&lt;span style=&quot;color: rgba(0, 0, 0, 0); font-family: monospace; font-size: 0px; text-align: start;&quot;&gt;%3CmxGraphModel%3E%3Croot%3E%3CmxCell%20id%3D%220%22%2F%3E%3CmxCell%20id%3D%221%22%20parent%3D%220%22%2F%3E%3CmxCell%20id%3D%222%22%20value%3D%221%22%20style%3D%22ellipse%3BwhiteSpace%3Dwrap%3Bhtml%3D1%3B%22%20vertex%3D%221%22%20parent%3D%221%22%3E%3CmxGeometry%20x%3D%22117.5%22%20y%3D%22270%22%20width%3D%2235%22%20height%3D%2230%22%20as%3D%22geometry%22%2F%3E%3C%2FmxCell%3E%3C%2Froot%3E%3C%2FmxGraphModel%3E&lt;/span&gt;" style="ellipse;whiteSpace=wrap;html=1;" vertex="1" parent="1">
                    <mxGeometry x="392.5" y="110" width="35" height="30" as="geometry"/>
                </mxCell>
                <mxCell id="30" value="" style="edgeStyle=none;html=1;endArrow=none;" edge="1" parent="1" source="18" target="29">
                    <mxGeometry relative="1" as="geometry">
                        <mxPoint x="547" y="65" as="sourcePoint"/>
                        <mxPoint x="547" y="180" as="targetPoint"/>
                    </mxGeometry>
                </mxCell>
                <mxCell id="29" value="4" style="ellipse;whiteSpace=wrap;html=1;" vertex="1" parent="1">
                    <mxGeometry x="529.5" y="110" width="35" height="30" as="geometry"/>
                </mxCell>
                <mxCell id="31" value="5" style="ellipse;whiteSpace=wrap;html=1;" vertex="1" parent="1">
                    <mxGeometry x="80" y="110" width="35" height="30" as="geometry"/>
                </mxCell>
                <mxCell id="32" value="6" style="ellipse;whiteSpace=wrap;html=1;" vertex="1" parent="1">
                    <mxGeometry x="580" y="200" width="35" height="30" as="geometry"/>
                </mxCell>
            </root>
        </mxGraphModel>
    </diagram>
</mxfile>